<svg xmlns="http://www.w3.org/2000/svg" viewBox="0 0 1200 400" role="img" aria-labelledby="title desc">
  <title id="title">roman-petruzela hero</title>
  <desc id="desc">Dark hero banner with a subtle Arch Linux watermark.</desc>
  <defs>
    <linearGradient id="bg" x1="0" y1="0" x2="1" y2="1">
      <stop offset="0%" stop-color="#0b1020"/>
      <stop offset="100%" stop-color="#111827"/>
    </linearGradient>
    <radialGradient id="glow" cx="75%" cy="30%" r="55%">
      <stop offset="0%" stop-color="#7aa2f7" stop-opacity=".30"/>
      <stop offset="100%" stop-color="#7aa2f7" stop-opacity="0"/>
    </radialGradient>
  </defs>
  <rect width="1200" height="400" rx="28" fill="url(#bg)"/>
  <circle cx="930" cy="110" r="260" fill="url(#glow)"/>
  <path fill="#1793d1" opacity=".10" transform="translate(735 48) scale(13)" d="M11.39.605C10.376 3.092 9.764 4.72 8.635 7.132c.693.734 1.543 1.589 2.923 2.554-1.484-.61-2.496-1.224-3.252-1.86C6.86 10.842 4.596 15.138 0 23.395c3.612-2.085 6.412-3.37 9.021-3.862a6.61 6.61 0 01-.171-1.547l.003-.115c.058-2.315 1.261-4.095 2.687-3.973 1.426.12 2.534 2.096 2.478 4.409a6.52 6.52 0 01-.146 1.243c2.58.505 5.352 1.787 8.914 3.844-.702-1.293-1.33-2.459-1.929-3.57-.943-.73-1.926-1.682-3.933-2.713 1.38.359 2.367.772 3.137 1.234-6.09-11.334-6.582-12.84-8.67-17.74zM22.898 21.36v-.623h-.234v-.084h.562v.084h-.234v.623h.331v-.707h.142l.167.5.034.107a2.26 2.26 0 01.038-.114l.17-.493H24v.707h-.091v-.593l-.206.593h-.084l-.205-.602v.602h-.091"/>
  <text x="72" y="122" fill="#f8fafc" font-family="Inter, Segoe UI, Arial, sans-serif" font-size="56" font-weight="700">roman-petruzela</text>
  <text x="72" y="174" fill="#cbd5e1" font-family="Inter, Segoe UI, Arial, sans-serif" font-size="24">
    Caffeine, existential dread, and weird ideas into code.
  </text>
  <text x="72" y="232" fill="#94a3b8" font-family="Inter, Segoe UI, Arial, sans-serif" font-size="22">
    Python · PHP · C# · Rust · JS
  </text>
</svg>
